:version 1.10
:name ASF
:units
  mass 1
  length 1
  angle deg
:documentation
  ASF file generated by Kaydara
:root
  axis xyz
  order  tx ty tz rx ry rz
  position 0 0 0
  orientation 0 0 0
:bonedata
  begin
    id 1
    name RightUpLegDummy
    direction -0.718183 -0.695806 0.00816078
    length 4.904
    axis 0 0 0 xyz
  end
  begin
    id 2
    name RightUpLeg
    direction -0.0736652 -0.994202 0.0783343
    length 17.4976
    axis -2.72909 -3.00389 -4.00133 xyz
    dof rx ry rz
  end
  begin
    id 3
    name RightLeg
    direction -0.0389037 -0.994596 -0.0962598
    length 16.5821
    axis 3.95836 -18.5909 -4.46993 xyz
    dof rx ry rz
  end
  begin
    id 4
    name RightFoot
    direction -0.311643 -0.412678 0.855906
    length 3.77069
    axis -1.99483 -18.8351 -3.27644 xyz
    dof rx ry rz
  end
  begin
    id 5
    name RightToes
    direction -0.317852 0.0389852 0.947339
    length 3.85082
    axis -2.00228 -18.1713 -3.25211 xyz
    dof rx ry rz
  end
  begin
    id 6
    name SpineDummy
    direction 8.3039e-015 1 4.44677e-016
    length 4.6813
    axis 0 0 0 xyz
  end
  begin
    id 7
    name Spine
    direction -0.000262373 0.999988 0.00493267
    length 10.1015
    axis -0.00246081 0.00062579 0.0150362 xyz
    dof rx ry rz
  end
  begin
    id 8
    name Spine1
    direction 0 0 0
    length 0
    axis -0.00349562 0.000650293 0.0196666 xyz
    dof rx ry rz
  end
  begin
    id 9
    name HEadDummy
    direction -0.000343232 0.999999 0.00123745
    length 3.43865
    axis -0.00349562 0.000650293 0.0196666 xyz
  end
  begin
    id 10
    name HEad
    direction -0.0461221 0.980933 0.188796
    length 5.12695
    axis -0.00351404 -7.04812 0.0199272 xyz
    dof rx ry rz
  end
  begin
    id 11
    name LeftShoulder1Dummy
    direction 0.998904 -0.0399089 -0.0244534
    length 3.5433
    axis -0.00349562 0.000650293 0.0196666 xyz
  end
  begin
    id 12
    name LeftShoulder1
    direction 0.99951 1.64443e-005 0.0312999
    length 4.05031
    axis -0.00349562 0.000650293 0.0196666 xyz
    dof rx ry rz
  end
  begin
    id 13
    name LeftArm
    direction 0.984791 0.0515299 0.165927
    length 12.9126
    axis -64.823 -10.7743 5.20463 xyz
    dof rx ry rz
  end
  begin
    id 14
    name LeftForeArm
    direction 0.984968 0.0534808 0.16425
    length 10.8596
    axis -30.0462 -7.70601 1.87451 xyz
    dof rx ry rz
  end
  begin
    id 15
    name LeftHand
    direction 0.975871 0.0289682 0.216418
    length 6.62295
    axis -20.1348 -6.98077 1.86072 xyz
    dof rx ry rz
  end
  begin
    id 16
    name RightShoulderDummy
    direction -0.998877 -0.0405946 -0.0244307
    length 3.5433
    axis -0.00349562 0.000650293 0.0196666 xyz
  end
  begin
    id 17
    name RightShoulder
    direction -0.998933 -0.0249743 -0.0388558
    length 4.05031
    axis -0.0205316 -4.02113 1.41395 xyz
    dof rx ry rz
  end
  begin
    id 18
    name RightArm
    direction -0.997559 0.068664 0.0127103
    length 12.9638
    axis -67.3882 1.84188 -6.15987 xyz
    dof rx ry rz
  end
  begin
    id 19
    name RightForeArm
    direction -0.991508 0.0912848 0.0926241
    length 10.8312
    axis -22.1975 3.41087 -4.28711 xyz
    dof rx ry rz
  end
  begin
    id 20
    name RightHand
    direction -0.989262 0.0600788 0.133232
    length 6.57864
    axis -12.2911 2.17515 -4.39675 xyz
    dof rx ry rz
  end
  begin
    id 21
    name LeftUpLegDummy
    direction 0.718183 -0.695806 0.00816078
    length 4.904
    axis 0 0 0 xyz
  end
  begin
    id 22
    name LeftUpLeg
    direction 0.0831398 -0.99469 0.0606531
    length 17.4976
    axis -1.71016 2.29552 4.63832 xyz
    dof rx ry rz
  end
  begin
    id 23
    name LeftLeg
    direction 0.0498442 -0.991778 -0.117862
    length 16.5821
    axis 5.13757 15.5727 5.13348 xyz
    dof rx ry rz
  end
  begin
    id 24
    name LeftFoot
    direction 0.269026 -0.433896 0.85986
    length 3.77069
    axis -0.576502 15.6961 4.10267 xyz
    dof rx ry rz
  end
  begin
    id 25
    name LeftToes
    direction 0.277311 0.0251143 0.960452
    length 3.85048
    axis -0.576502 15.6961 4.10267 xyz
    dof rx ry rz
  end
:hierarchy
  begin
    root RightUpLegDummy SpineDummy LeftUpLegDummy
    RightUpLegDummy RightUpLeg
    RightUpLeg RightLeg
    RightLeg RightFoot
    RightFoot RightToes
    SpineDummy Spine
    Spine Spine1
    Spine1 HEadDummy LeftShoulder1Dummy RightShoulderDummy
    HEadDummy HEad
    LeftShoulder1Dummy LeftShoulder1
    LeftShoulder1 LeftArm
    LeftArm LeftForeArm
    LeftForeArm LeftHand
    RightShoulderDummy RightShoulder
    RightShoulder RightArm
    RightArm RightForeArm
    RightForeArm RightHand
    LeftUpLegDummy LeftUpLeg
    LeftUpLeg LeftLeg
    LeftLeg LeftFoot
    LeftFoot LeftToes
  end

:SAMPLES-PER-SECOND 30
:FULLY-SPECIFIED
:DEGREES
107
root  8.63464 20.057 -71.7271 44.5077 -4.40884 -19.8477
RightUpLeg  -61.8955 -5.92385 18.7109
RightLeg  122.575 13.5908 3.01686
RightFoot  -34.4011 2.14598 10.8038
RightToes  5.82077e-011 -3.18055e-015 -2.98177e-016
Spine  48.208 -2.92384 22.9322
Spine1  0.286643 8.41616 -3.69152
HEad  -30.8877 -2.71624 -6.2769
LeftShoulder1  -3.88251e-019 9.70628e-020 -3.87848e-018
LeftArm  -4.1282 -25.1352 -72.4173
LeftForeArm  6.85647 -7.26738 -5.481
LeftHand  -11.9253 -10.795 75.244
RightShoulder  3.64926 9.60135 15.935
RightArm  4.74941 24.6357 55.8283
RightForeArm  24.6459 3.96362 -4.30033
RightHand  -12.1545 10.3516 -75.963
LeftUpLeg  -46.4538 4.23772 6.20826
LeftLeg  115.689 -18.0755 9.14924
LeftFoot  -47.0269 -6.75898 -21.4878
LeftToes  1.39127e-010 -3.60802e-011 -7.31315e-011
108
root  8.17281 19.8839 -71.528 43.9971 -3.09617 -15.6437
RightUpLeg  -58.8942 -7.46817 17.5041
RightLeg  121.729 14.8922 1.07099
RightFoot  -39.4982 3.10957 12.7141
RightToes  5.82077e-011 -3.18055e-015 -2.98177e-016
Spine  46.3764 -2.91753 20.6173
Spine1  1.07644 6.3772 -0.600663
HEad  -30.7623 -2.5854 -6.01962
LeftShoulder1  -3.88251e-019 9.70628e-020 -3.87848e-018
LeftArm  -4.43252 -24.3671 -72.3031
LeftForeArm  7.65577 -7.08101 -5.47288
LeftHand  -12.1277 -10.9499 75.6387
RightShoulder  3.7432 9.51862 16.6208
RightArm  5.07253 23.8095 55.6081
RightForeArm  24.2661 4.97616 -4.1538
RightHand  -12.1728 10.2168 -76.524
LeftUpLeg  -46.436 1.09279 4.6956
LeftLeg  115.597 -17.8947 8.85416
LeftFoot  -46.8254 -6.73016 -21.5303
LeftToes  1.39127e-010 -3.60802e-011 -7.31315e-011
109
root  7.71159 19.6619 -71.3945 44.0396 -1.77257 -11.7573
RightUpLeg  -57.6515 -8.67559 16.5356
RightLeg  121.423 16.024 -0.703852
RightFoot  -42.2651 3.5785 13.2023
RightToes  5.82077e-011 -3.18055e-015 -2.98177e-016
Spine  44.6727 -2.58608 18.0831
Spine1  1.25857 4.60484 2.54088
HEad  -30.4688 -2.46288 -5.67691
LeftShoulder1  -3.88251e-019 9.70628e-020 -3.87848e-018
LeftArm  -4.80167 -23.485 -72.6734
LeftForeArm  8.60411 -6.54009 -5.22601
LeftHand  -12.3253 -11.0931 76.0431
RightShoulder  3.86284 9.43002 17.4731
RightArm  5.62673 22.9957 55.0472
RightForeArm  24.1528 6.09838 -3.81043
RightHand  -12.2816 10.3076 -76.701
LeftUpLeg  -47.1407 -1.65199 3.42374
LeftLeg  115.935 -17.8476 8.65895
LeftFoot  -46.4132 -6.6182 -21.4483
LeftToes  1.39127e-010 -3.60802e-011 -7.31315e-011
110
root  7.32275 19.506 -71.2626 43.051 -0.0125332 -8.55968
RightUpLeg  -56.0197 -10.1472 15.7425
RightLeg  121.669 16.7149 -1.77616
RightFoot  -43.0013 3.58288 12.8608
RightToes  5.82077e-011 -3.18055e-015 -2.98177e-016
Spine  44.1616 -3.05966 16.4775
Spine1  1.41993 2.92622 4.89804
HEad  -30.2449 -2.18243 -5.30636
LeftShoulder1  -3.88251e-019 9.70628e-020 -3.87848e-018
LeftArm  -5.10052 -22.8771 -72.886
LeftForeArm  9.45901 -5.82242 -5.13084
LeftHand  -12.4772 -11.2487 76.1906
RightShoulder  3.96057 9.39768 18.1083
RightArm  5.90049 22.1408 54.6781
RightForeArm  24.1735 7.00572 -3.70617
RightHand  -12.4567 10.4887 -76.8581
LeftUpLeg  -46.5809 -4.37707 2.86295
LeftLeg  116.031 -17.8896 8.70365
LeftFoot  -46.0863 -6.58978 -21.5779
LeftToes  1.39127e-010 -3.60802e-011 -7.31315e-011
111
root  6.96724 19.3826 -71.1179 41.2125 1.91503 -5.58807
RightUpLeg  -53.4558 -11.9916 14.7721
RightLeg  122.311 17.2848 -2.59754
RightFoot  -43.3147 3.5395 12.5585
RightToes  5.82077e-011 -3.18055e-015 -2.98177e-016
Spine  44.2528 -4.0022 15.1725
Spine1  2.09186 1.16159 6.67738
HEad  -30.1023 -1.80342 -4.90361
LeftShoulder1  -3.88251e-019 9.70628e-020 -3.87848e-018
LeftArm  -5.21359 -22.6871 -72.6005
LeftForeArm  10.193 -5.18925 -5.38153
LeftHand  -12.5716 -11.4563 75.9016
RightShoulder  4.04493 9.40524 18.5986
RightArm  5.8864 21.2727 54.609
RightForeArm  24.1046 7.80092 -3.88458
RightHand  -12.5195 10.5174 -77.0405
LeftUpLeg  -44.7766 -7.1718 2.37903
LeftLeg  115.759 -17.9556 8.9097
LeftFoot  -46.1188 -6.67226 -21.8246
LeftToes  1.39127e-010 -3.60802e-011 -7.31315e-011
112
root  6.53054 19.2285 -71.0265 40.3713 3.83955 -3.12123
RightUpLeg  -52.1562 -13.5128 15.0727
RightLeg  122.687 18.5133 -4.37317
RightFoot  -43.3352 3.429 12.1425
RightToes  5.82077e-011 -3.18055e-015 -2.98177e-016
Spine  43.755 -4.15356 13.5147
Spine1  2.69555 -0.205339 8.94544
HEad  -29.9553 -1.56992 -4.35714
LeftShoulder1  -3.88251e-019 9.70628e-020 -3.87848e-018
LeftArm  -5.29791 -22.5925 -72.3577
LeftForeArm  11.0557 -4.74378 -5.5934
LeftHand  -12.6575 -11.6676 75.569
RightShoulder  4.14952 9.39927 19.2299
RightArm  5.9488 20.4688 54.3718
RightForeArm  23.8674 8.61011 -3.9835
RightHand  -12.5094 10.4381 -77.2737
LeftUpLeg  -44.1067 -9.40102 2.7339
LeftLeg  115.794 -17.8608 8.72726
LeftFoot  -46.3311 -6.68234 -21.7115
LeftToes  1.39127e-010 -3.60802e-011 -7.31315e-011
113
root  6.11192 19.1409 -70.9594 40.179 5.71764 -1.49965
RightUpLeg  -52.0921 -14.9999 16.5269
RightLeg  122.58 20.0203 -6.57145
RightFoot  -42.4621 2.98168 10.8272
RightToes  5.82077e-011 -3.18055e-015 -2.98177e-016
Spine  43.5842 -4.0884 12.4227
Spine1  2.49419 -1.0049 10.922
HEad  -29.9011 -1.53279 -3.62216
LeftShoulder1  -3.88251e-019 9.70628e-020 -3.87848e-018
LeftArm  -5.43465 -22.3799 -72.4499
LeftForeArm  12.0407 -4.51333 -5.52107
LeftHand  -12.7649 -11.8012 75.5948
RightShoulder  4.26861 9.36742 19.9897
RightArm  6.07887 19.7437 53.8936
RightForeArm  23.6033 9.22753 -3.92653
RightHand  -12.602 10.4656 -77.5925
LeftUpLeg  -44.3481 -11.0242 3.88071
LeftLeg  115.824 -17.8015 8.6111
LeftFoot  -46.2966 -6.54706 -21.296
LeftToes  1.39127e-010 -3.60802e-011 -7.31315e-011
114
root  5.80758 19.1443 -70.8699 40.1435 7.1454 -1.09992
RightUpLeg  -52.5258 -16.2291 18.4682
RightLeg  122.417 21.126 -8.18226
RightFoot  -40.9876 2.34804 8.90745
RightToes  5.82077e-011 -3.18055e-015 -2.98177e-016
Spine  43.9984 -4.3311 12.5642
Spine1  1.79127 -1.18042 11.3304
HEad  -29.9789 -1.50071 -2.84883
LeftShoulder1  -3.88251e-019 9.70628e-020 -3.87848e-018
LeftArm  -5.45268 -22.2143 -72.3864
LeftForeArm  12.765 -4.54397 -5.47344
LeftHand  -12.8546 -11.827 75.9011
RightShoulder  4.3614 9.34689 20.574
RightArm  5.93853 19.0189 53.7181
RightForeArm  23.4371 9.41019 -3.98111
RightHand  -12.7353 10.5533 -77.8786
LeftUpLeg  -44.6117 -11.6779 5.39137
LeftLeg  115.524 -17.8843 8.85981
LeftFoot  -46.2124 -6.46626 -21.0898
LeftToes  1.39127e-010 -3.60802e-011 -7.31315e-011
115
root  5.57003 19.1169 -70.7614 40.509 7.12727 -1.32295
RightUpLeg  -53.1763 -16.4972 19.7386
RightLeg  122.602 21.6798 -8.9072
RightFoot  -39.9614 1.85168 7.20783
RightToes  5.82077e-011 -3.18055e-015 -2.98177e-016
Spine  44.2187 -4.12047 12.4044
Spine1  1.34801 -0.831641 10.5692
HEad  -29.9622 -1.43764 -2.27911
LeftShoulder1  -3.88251e-019 9.70628e-020 -3.87848e-018
LeftArm  -5.36014 -22.1455 -71.9666
LeftForeArm  13.159 -4.80526 -5.618
LeftHand  -12.8802 -11.7739 76.1899
RightShoulder  4.4249 9.37434 20.9007
RightArm  5.5483 18.2691 53.9488
RightForeArm  23.3076 9.32211 -4.18845
RightHand  -12.6998 10.4513 -78.0805
LeftUpLeg  -44.6587 -10.9425 6.12783
LeftLeg  114.997 -18.0715 9.38125
LeftFoot  -46.3225 -6.51052 -21.1602
LeftToes  1.39127e-010 -3.60802e-011 -7.31315e-011
116
root  5.29126 18.9802 -70.6738 41.5191 5.61191 -1.45347
RightUpLeg  -54.0456 -15.5704 20.0044
RightLeg  123.036 21.7343 -8.85601
RightFoot  -39.9979 1.63534 6.28724
RightToes  5.82077e-011 -3.18055e-015 -2.98177e-016
Spine  43.7169 -2.70544 10.636
Spine1  1.34106 -0.102128 10.1888
HEad  -29.7543 -1.51706 -2.03381
LeftShoulder1  -3.88251e-019 9.70628e-020 -3.87848e-018
LeftArm  -5.4261 -21.9581 -71.7052
LeftForeArm  13.6378 -5.14072 -5.66305
LeftHand  -12.8635 -11.7042 76.3507
RightShoulder  4.50158 9.44308 21.2303
RightArm  5.29207 17.5554 53.9797
RightForeArm  23.1505 9.40148 -4.31773
RightHand  -12.5418 10.1911 -78.2998
LeftUpLeg  -44.8534 -9.08406 5.86617
LeftLeg  114.661 -18.2064 9.75076
LeftFoot  -46.5107 -6.51559 -21.0517
LeftToes  1.39127e-010 -3.60802e-011 -7.31315e-011
117
root  4.98037 18.8212 -70.6171 42.6095 3.93681 -1.50521
RightUpLeg  -54.6581 -14.2187 19.8939
RightLeg  123.411 21.2612 -8.10246
RightFoot  -40.7045 1.58079 5.88453
RightToes  5.82077e-011 -3.18055e-015 -2.98177e-016
Spine  42.9759 -0.876992 8.32842
Spine1  1.36128 0.712305 10.5305
HEad  -29.6112 -1.73424 -1.98929
LeftShoulder1  -3.88251e-019 9.70628e-020 -3.87848e-018
LeftArm  -5.65578 -21.6539 -71.8236
LeftForeArm  14.3875 -5.33227 -5.51788
LeftHand  -12.856 -11.6721 76.4255
RightShoulder  4.59458 9.50484 21.6647
RightArm  5.2226 16.8274 53.6155
RightForeArm  23.0466 9.77581 -4.34959
RightHand  -12.5083 10.0916 -78.507
LeftUpLeg  -45.2097 -7.12596 5.58194
LeftLeg  114.688 -18.1632 9.65962
LeftFoot  -46.6775 -6.44962 -20.7298
LeftToes  1.39127e-010 -3.60802e-011 -7.31315e-011
118
root  4.72443 18.7524 -70.5542 43.2237 3.01251 -1.86916
RightUpLeg  -54.646 -12.948 20.036
RightLeg  123.491 20.559 -7.11955
RightFoot  -41.2475 1.54679 5.62153
RightToes  5.82077e-011 -3.18055e-015 -2.98177e-016
Spine  42.749 0.259477 7.1055
Spine1  1.05753 1.42469 10.5467
HEad  -29.6644 -1.89825 -1.85268
LeftShoulder1  -3.88251e-019 9.70628e-020 -3.87848e-018
LeftArm  -5.7366 -21.5189 -71.9235
LeftForeArm  15.1769 -5.20243 -5.49094
LeftHand  -12.8472 -11.6787 76.365
RightShoulder  4.6523 9.52966 21.9563
RightArm  4.98212 15.9011 53.376
RightForeArm  22.993 10.1661 -4.50731
RightHand  -12.6371 10.2207 -78.6217
LeftUpLeg  -45.3916 -5.59164 5.94548
LeftLeg  114.767 -18.0407 9.40251
LeftFoot  -46.7307 -6.36047 -20.4091
LeftToes  1.39127e-010 -3.60802e-011 -7.31315e-011
119
root  4.54989 18.7723 -70.4624 43.4549 2.61587 -2.53939
RightUpLeg  -54.3263 -11.6729 20.466
RightLeg  123.222 20.124 -6.57814
RightFoot  -41.1953 1.51258 5.49666
RightToes  5.82077e-011 -3.18055e-015 -2.98177e-016
Spine  43.0489 0.650615 7.05758
Spine1  0.478056 2.05756 9.6949
HEad  -29.6676 -2.03551 -1.4373
LeftShoulder1  -3.88251e-019 9.70628e-020 -3.87848e-018
LeftArm  -5.57739 -21.6509 -71.8835
LeftForeArm  15.9114 -4.77154 -5.66313
LeftHand  -12.7755 -11.6793 76.0486
RightShoulder  4.67351 9.54817 22.0462
RightArm  4.50961 14.7738 53.3768
RightForeArm  22.7825 10.4774 -4.82213
RightHand  -12.7485 10.3059 -78.8134
LeftUpLeg  -45.3045 -4.35073 6.62371
LeftLeg  114.573 -18.0183 9.43082
LeftFoot  -46.6014 -6.26851 -20.1952
LeftToes  1.39127e-010 -3.60802e-011 -7.31315e-011
